{"title":"For.Colored.Girls.DVDRiP.XViD.AC3.NiTR0","uid":6131635,"size":2224439692,"categoryP":"video","categoryS":"movies","magnet":"?xt=urn:btih:c323dc788482f7e2160133bb7ba9127dc85cd175&amp;dn=For.Colored.Girls.DVDRiP.XViD.AC3.NiTR0&amp;tr=udp%3A%2F%2Ftracker.openbittorrent.com%3A80&amp;tr=udp%3A%2F%2Fopen.demonii.com%3A1337&amp;tr=udp%3A%2F%2Ftracker.coppersurfer.tk%3A6969&amp;tr=udp%3A%2F%2Fexodus.desync.com%3A6969","seeders":0,"leechers":1,"uploader":"TvTeam","files":5,"time":1296150341,"description":". \n  &lt;a href=&quot;\nhttp://www.torrentday.com/&quot; rel=&quot;nofollow&quot; target=&quot;_NEW&quot;&gt;\nhttp://www.torrentday.com/&lt;/a&gt;        :     The Hottest Private Tracker On The Net!!!\n &lt;a href=&quot;\nhttp://www.torrentday.com&quot; rel=&quot;nofollow&quot; target=&quot;_NEW&quot;&gt;\nhttp://www.torrentday.com&lt;/a&gt;          :     Once &amp; For all ;)\n\n\n               www . TorrentDay . Com \n\n(((((((((((((= Enjoy No RAR releases =))))))))))))))))))))\n\n\n...................................NFO:....................................\n\n.For.Colored.Girls.DVDRiP.XViD.AC3.NiTR0\n\nsource : Retail R1 NTSC DVD5\n\nGeneral\nComplete name                    : For.Colored.Girls.DVDRiP.XViD.AC3.NiTR0\nFormat                           : AVI\nFormat/Info                      : Audio Video Interleave\nFile size                        : 2.05 GiB\nDuration                         : 2h 13mn\nOverall bit rate                 : 2 197 Kbps\n\nVideo\nID                               : 0\nFormat                           : MPEG-4 Visual\nFormat profile                   : Advanced Simple@L5\nFormat settings, BVOP            : 2\nFormat settings, QPel            : No\nFormat settings, GMC             : No warppoints\nFormat settings, Matrix          : Default (H.263)\nMuxing mode                      : Packed bitstream\nCodec ID                         : XVID\nDuration                         : 2h 13mn\nBit rate                         : 1 744 Kbps\nWidth                            : 720 pixels\nHeight                           : 400 pixels\nDisplay aspect ratio             : 16:9\nFrame rate                       : 23.976 fps\nScan type                        : Progressive\nStream size                      : 1.63 GiB (79%)\n\nAudio\nFormat                           : AC-3\nMode extension                   : CM (complete main)\nDuration                         : 2h 13mn\nBit rate mode                    : Constant\nBit rate                         : 448 Kbps\nChannel(s)                       : 6 channels\nChannel positions                : Front: L C R, Side: L R, LFE\nSampling rate                    : 48.0 KHz\nStream size                      : 428 MiB (20%)\n\nScreens:\n[img]http://img684.imageshack.us/img684/6346/21007774.png[/img]\n[img]http://img684.imageshack.us/img684/6028/74215250.png[/img]\n[img]http://img211.imageshack.us/img211/2998/44432726.png[/img]\n[img]http://img211.imageshack.us/img211/7386/41703138.png[/img]","torrent":{"xt":"urn:btih:c323dc788482f7e2160133bb7ba9127dc85cd175","amp;dn":"For.Colored.Girls.DVDRiP.XViD.AC3.NiTR0","amp;tr":["udp%3A%2F%2Ftracker.openbittorrent.com%3A80","udp%3A%2F%2Fopen.demonii.com%3A1337","udp%3A%2F%2Ftracker.coppersurfer.tk%3A6969","udp%3A%2F%2Fexodus.desync.com%3A6969"],"infoHash":"c323dc788482f7e2160133bb7ba9127dc85cd175","infoHashBuffer":{"type":"Buffer","data":[195,35,220,120,132,130,247,226,22,1,51,187,123,169,18,125,200,92,209,117]},"announce":[],"urlList":[]}}